<?xml version="1.0" encoding="UTF-8" standalone="no"?>
<svg
   xmlns:dc="http://purl.org/dc/elements/1.1/"
   xmlns:cc="http://creativecommons.org/ns#"
   xmlns:rdf="http://www.w3.org/1999/02/22-rdf-syntax-ns#"
   xmlns:svg="http://www.w3.org/2000/svg"
   xmlns="http://www.w3.org/2000/svg"
   xmlns:xlink="http://www.w3.org/1999/xlink"
   xmlns:sodipodi="http://sodipodi.sourceforge.net/DTD/sodipodi-0.dtd"
   xmlns:inkscape="http://www.inkscape.org/namespaces/inkscape"
   version="1.1"
   id="Layer_1"
   x="0px"
   y="0px"
   viewBox="0 0 500 500"
   xml:space="preserve"
   sodipodi:docname="anniversary.svg"
   width="500"
   height="500"
   inkscape:version="1.0.1 (3bc2e813f5, 2020-09-07)"><metadata
   id="metadata675"><rdf:RDF><cc:Work
       rdf:about=""><dc:format>image/svg+xml</dc:format><dc:type
         rdf:resource="http://purl.org/dc/dcmitype/StillImage" /><dc:title></dc:title></cc:Work></rdf:RDF></metadata><defs
   id="defs673" /><sodipodi:namedview
   pagecolor="#ffffff"
   bordercolor="#666666"
   borderopacity="1"
   objecttolerance="10"
   gridtolerance="10"
   guidetolerance="10"
   inkscape:pageopacity="0"
   inkscape:pageshadow="2"
   inkscape:window-width="1920"
   inkscape:window-height="1017"
   id="namedview671"
   showgrid="false"
   inkscape:zoom="0.3765"
   inkscape:cx="1000"
   inkscape:cy="1000"
   inkscape:window-x="-8"
   inkscape:window-y="-8"
   inkscape:window-maximized="1"
   inkscape:current-layer="Layer_1" />
<style
   type="text/css"
   id="style2">
	
		.st0{display:none;fill-rule:evenodd;clip-rule:evenodd;fill:#212121;stroke:#373333;stroke-width:0.5669;stroke-miterlimit:22.9256;}
	.st1{clip-path:url(#SVGID_2_);fill:url(#SVGID_3_);}
	.st2{fill:url(#SVGID_4_);}
	.st3{opacity:0.3;}
	.st4{fill:url(#SVGID_5_);}
	.st5{fill:url(#SVGID_6_);}
	.st6{fill:url(#SVGID_7_);}
	.st7{fill:url(#SVGID_8_);}
	.st8{fill:url(#SVGID_9_);}
	.st9{fill:url(#SVGID_10_);}
	.st10{fill:url(#SVGID_11_);}
	.st11{fill:url(#SVGID_12_);stroke:url(#SVGID_13_);stroke-width:10;stroke-miterlimit:10;}
	.st12{fill:url(#SVGID_14_);stroke:url(#SVGID_15_);stroke-width:10;stroke-miterlimit:10;}
	.st13{clip-path:url(#SVGID_17_);fill:url(#SVGID_18_);}
	.st14{fill:url(#SVGID_19_);}
	.st15{fill:url(#SVGID_20_);}
	.st16{fill:url(#SVGID_21_);}
	.st17{fill:url(#SVGID_22_);}
	.st18{fill:url(#SVGID_23_);}
	.st19{fill:url(#SVGID_24_);}
	.st20{fill:url(#SVGID_25_);}
	.st21{fill:url(#SVGID_26_);}
	.st22{fill:url(#SVGID_27_);}
	.st23{fill:url(#SVGID_28_);}
	.st24{fill:url(#SVGID_29_);}
	.st25{clip-path:url(#SVGID_35_);}
	.st26{clip-path:url(#SVGID_36_);}
	.st27{clip-path:url(#SVGID_37_);}
	.st28{clip-path:url(#SVGID_38_);}
	.st29{clip-path:url(#SVGID_39_);fill:#F9DF7B;}
	.st30{fill:none;}
	.st31{fill:none;stroke:url(#SVGID_40_);stroke-miterlimit:10;}
	.st32{fill:url(#SVGID_41_);}
	.st33{fill:url(#SVGID_42_);}
	.st34{fill:url(#SVGID_43_);}
	.st35{fill:url(#SVGID_44_);}
	.st36{fill:url(#SVGID_45_);}
	.st37{fill:url(#SVGID_46_);}
	.st38{fill:url(#SVGID_47_);}
	.st39{fill:url(#SVGID_48_);}
	.st40{fill:url(#SVGID_49_);}
	.st41{fill:url(#SVGID_50_);}
	.st42{fill:url(#SVGID_51_);}
	.st43{fill:url(#SVGID_52_);}
</style>
<rect
   x="1.24"
   y="6"
   class="st0"
   width="1997.76"
   height="1988.59"
   id="rect4" />
<g
   id="g668"
   transform="matrix(0.31250586,0,0,0.31250586,-63.235561,-43.125809)"
   style="stroke-width:3.19994">
	<g
   id="g27"
   style="stroke-width:3.19994">
		<defs
   id="defs7">
			<path
   id="SVGID_1_"
   d="m 1251.34,1501.8 c 6.27,0 11.37,5.09 11.37,11.37 0,6.27 -5.1,11.36 -11.37,11.36 -6.28,0 -11.37,-5.09 -11.37,-11.36 0.01,-6.28 5.09,-11.37 11.37,-11.37 z M 336.69,750.08 v 0 c 2.52,71.53 7.25,80.06 49.23,137.32 15.93,-41.27 -9.25,-116.83 -49.23,-137.32 z M 730.48,343.23 v 0 c -21.92,-14.75 -64.89,-9.22 -88.26,7.6 l -1.24,-1.52 C 564.36,406.79 501.44,482.04 458.16,569.07 416.48,652.87 393,747.6 393,847.93 c 0,149.91 52.45,287.41 139.73,394.56 88.8,109.03 213.64,186.68 355.99,214.08 7.76,1.5 15.4,3.08 23.08,4.68 21.9,4.54 44.18,9.16 66.81,11.29 -23.16,10.43 -71.79,58.81 -115.02,110.54 -44.48,53.21 -83.5,110.15 -83.5,133.18 0,9.04 2.36,12.79 4.89,16.82 0.75,1.19 1.52,2.39 2.19,3.75 l 0.57,1.14 h 1.27 15.41 1.13 l 0.61,-0.99 c 7.89,-12.58 14.85,-26.55 21.86,-40.62 6.62,-13.28 13.29,-26.65 20.64,-38.74 5.69,-9.33 13.33,-20.87 21.22,-32.34 9.16,-13.3 18.68,-26.53 25.87,-36.05 8.72,-11.54 41.3,-49.25 68.67,-76.72 16.99,-17.06 31.73,-30.07 36.89,-30.07 h 3.42 c 4.79,0 19.66,13.28 36.87,30.55 27.48,27.6 60.35,65.19 68.71,76.24 7.25,9.63 18.17,24.57 28.17,39.08 7.38,10.7 14.28,21.2 18.91,29.2 6.55,11.38 12.66,23.54 18.75,35.64 7.63,15.16 15.21,30.23 23.74,43.83 l 0.62,0.99 h 1.13 15.4 1.27 l 0.58,-1.14 c 0.68,-1.36 1.44,-2.57 2.19,-3.77 2.53,-4.01 4.88,-7.76 4.88,-16.8 0,-10.66 -12.07,-33.06 -27.7,-57.27 -24.04,-37.27 -56.59,-79.22 -65.92,-88.41 -6.29,-6.22 -12.59,-13.31 -18.99,-20.52 -10.96,-12.35 -22.23,-25.05 -34.39,-34.42 -4.34,-3.34 -10.01,-8.6 -16.19,-14.31 -11.75,-10.89 -25.33,-23.49 -36.09,-28.66 9.63,-0.85 19.21,-2.11 28.71,-3.66 -6,1.42 -11.7,3.28 -16.94,5.62 84.21,55.46 96.66,61.56 198.33,60.02 -26.84,-46.43 -108.15,-75.27 -167.46,-68.11 11.14,-2.1 22.19,-4.46 33.14,-6.79 7.17,-1.53 14.3,-3.05 20.64,-4.32 140.95,-28.58 264.39,-106.51 352.1,-215.25 86.15,-106.83 137.84,-243.41 137.84,-392.25 0,-100.32 -23.48,-195.05 -65.16,-278.86 -43.29,-87.03 -106.2,-162.28 -182.82,-219.76 l -0.86,1.07 c -24.15,-13.75 -62.13,-17.35 -82.3,-3.78 41.55,21.09 49.18,21.82 92.3,16.36 112.17,101.98 175.91,219.38 201.3,338.16 21.04,98.41 15.75,197.79 -10.17,290.12 -25.91,92.36 -72.43,177.68 -133.84,247.97 -77.95,89.21 -179.88,154.2 -294.06,178.61 -42.52,9.09 -86.91,5.94 -132.4,2.69 l -1.86,-0.13 -0.42,0.03 c -22.32,2.95 -44.4,5.86 -66.15,7.14 -21.66,1.27 -42.98,0.94 -63.9,-2.62 -111.72,-18.94 -212.07,-80.8 -289.59,-168.4 -60.37,-68.22 -106.91,-152.07 -134.18,-243.4 -12.31,-41.24 -20.69,-83.98 -24.67,-127.52 0.52,2.64 1.19,5.19 2.01,7.62 42.74,-53.14 47.64,-61.14 53.14,-129.67 -31.58,14.45 -55.47,63.5 -56.59,103.11 -1.44,-23.67 -1.57,-47.54 -0.3,-71.5 48.8,-42.69 55.12,-50.66 72.18,-115.97 -28.53,7.4 -55.96,40.32 -68.51,73.84 1.14,-9.44 2.5,-18.85 4.1,-28.25 2.06,-12.16 4.5,-24.3 7.34,-36.41 47.25,-29.15 53.53,-34.6 76.88,-86.71 -25.33,2.21 -53.44,26.88 -68.2,53.75 5.88,-20.02 12.85,-39.95 20.98,-59.7 -0.47,1.74 -0.85,3.45 -1.12,5.14 52.54,-22.9 59.33,-26.93 90.14,-75.83 -28.72,-1.53 -65,24.86 -81.62,53.44 7.69,-17.19 16.28,-34.22 25.78,-51.07 46.08,-12.04 52.22,-14.56 83.93,-50.87 -22.69,-4.8 -54.57,10.95 -72.43,31.31 9.67,-15.76 20.17,-31.34 31.53,-46.69 -1.23,1.87 -2.3,3.77 -3.18,5.68 47.47,-6.62 53.82,-8.34 89.62,-40.78 -24.66,-8.34 -63.82,7.71 -82.31,29.56 25.25,-33.38 54.61,-65.63 88.36,-96.32 45.1,5.78 52.25,5.38 94.5,-16.06 z m -47.74,41.66 v 0 c -41.72,29.55 -48.62,30.56 -99.3,31.52 16.53,-26.92 70.35,-45.35 99.3,-31.52 z m -197.2,453.79 v 0 c 10.43,83.56 6.53,94.37 -31.55,168.72 -26.21,-44.96 -11.08,-137.45 31.55,-168.72 z m 10.82,111.13 v 0 c 27.06,79.76 25.41,91.13 3.1,171.63 -34.74,-38.74 -38.54,-132.39 -3.1,-171.63 z m 32.24,100.25 v 0 c 51.99,80.68 53.31,93.7 50.93,188.88 -49.13,-33.23 -79.27,-135.72 -50.93,-188.88 z m 61.88,107.92 v 0 c 69.92,65.75 74.34,78.09 94.99,171.02 -55.68,-20.41 -109.66,-112.59 -94.99,-171.02 z m 94.87,86.7 v 0 c 89.69,47.87 97.62,59.24 144.46,148.55 -62.57,-5.44 -143.27,-84.76 -144.46,-148.55 z m 117.64,76.89 v 0 c 100.01,18.28 111.04,26.69 182.85,97.48 -61.26,13.89 -162.29,-37.06 -182.85,-97.48 z M 715.88,290.28 v 0 c -4.93,23.78 -40.68,47.79 -64.48,45.43 23.8,-30.14 27.56,-33.83 64.48,-45.43 z m -74.79,18.76 v 0 c 4.18,23.94 -20.24,59.41 -43.22,65.98 11.02,-36.76 13.16,-41.57 43.22,-65.98 z m -52.25,29.45 v 0 c 8.36,28.08 -15.93,74.03 -42.56,85.13 8.07,-45.61 9.95,-51.7 42.56,-85.13 z m -51.19,52.84 v 0 c 11.47,26.97 -7.49,75.37 -32.71,89.38 2.89,-46.22 4.08,-52.48 32.71,-89.38 z m -52.07,61.47 v 0 c 14.74,25.33 1.94,75.72 -21.35,92.76 -2.87,-46.22 -2.46,-52.59 21.35,-92.76 z m -41.87,57.31 v 0 c 17.59,23.45 10.82,74.96 -10.31,94.63 -8.29,-45.58 -8.64,-51.92 10.31,-94.63 z m -47.35,55.71 v 0 c 27.12,26.78 28.23,94.34 4.83,123.65 -19.37,-57.03 -21.02,-65.13 -4.83,-123.65 z m -32.9,96.93 v 0 c 31,22.16 42.78,88.69 24.28,121.33 -28.11,-53.24 -31.03,-61 -24.28,-121.33 z m -36.8,197.19 v 0 c 42.81,13.61 80.11,83.98 71.21,127.29 -50.84,-49.53 -56.93,-57.16 -71.21,-127.29 z m -5.14,97.25 v 0 c 51.86,6.25 109.78,78.55 109.02,129.96 -68.85,-45.53 -77.47,-52.94 -109.02,-129.96 z m 19.53,118.92 v 0 c 52.06,-4.43 123.48,54.56 133.21,105.04 -76.7,-30.55 -86.62,-36.07 -133.21,-105.04 z m 30.63,100.87 v 0 c 55.35,-14.75 143.75,35.29 163.92,87.95 -88.66,-18.34 -100.43,-22.37 -163.92,-87.95 z m 74.41,105.92 v 0 c 51.91,-24.24 147.72,9.5 176.81,57.81 -90.5,-2.5 -102.79,-4.41 -176.81,-57.81 z m 82.35,107.09 v 0 c 51.35,-37.87 163.41,-22.08 205.79,24.27 -99.37,17.16 -113.22,17.79 -205.79,-24.27 z m 116.02,83.14 v 0 c 42.58,-47.53 155.49,-54.87 206.43,-18.09 -93.81,37.01 -107.24,40.44 -206.43,18.09 z m 123.46,61.51 v 0 c 31.93,-55.25 140.94,-85.57 198.33,-60.02 -84.23,55.45 -96.67,61.56 -198.33,60.02 z m 900.09,-784.56 v 0 c -2.53,71.53 -7.26,80.06 -49.24,137.32 -15.93,-41.27 9.25,-116.83 49.24,-137.32 z M 1321.97,384.89 v 0 c 28.95,-13.83 82.76,4.6 99.29,31.52 -50.69,-0.97 -57.58,-1.98 -99.29,-31.52 z m 52.8,41.16 v 0 c 28.74,-9.71 77.16,13.67 89.62,40.78 -47.47,-6.61 -53.82,-8.33 -89.62,-40.78 z m 45.54,50.48 v 0 c 29.66,-6.28 75.03,22.57 84.26,50.96 -46.37,-12.11 -52.48,-14.57 -84.26,-50.96 z m 28.09,48.51 v 0 c 36.22,-1.93 84.5,40.58 90.14,75.83 -52.56,-22.9 -59.32,-26.93 -90.14,-75.83 z m 41.81,76.64 v 0 c 36.14,3.17 77.94,52.06 78.58,87.75 -48.82,-30.07 -54.95,-35.03 -78.58,-87.75 z m 19.82,77.53 v 0 c 41.76,10.83 81.22,76.39 74.95,118.41 -51.36,-44.87 -57.6,-51.87 -74.95,-118.41 z m 15.27,84.36 v 0 c 39.25,17.96 66.65,89.41 53.13,129.67 C 1535.7,840.1 1530.8,832.1 1525.3,763.57 Z m -6.14,75.11 v 0 c 42.62,31.28 57.76,123.77 31.55,168.72 -38.08,-74.35 -41.98,-85.17 -31.55,-168.72 z m -10.82,111.13 v 0 c 35.44,39.24 31.64,132.88 -3.09,171.63 -22.31,-80.5 -23.97,-91.87 3.09,-171.63 z m -32.23,100.25 v 0 c 28.33,53.16 -1.81,155.65 -50.93,188.88 -2.39,-95.18 -1.06,-108.21 50.93,-188.88 z m -61.88,107.92 v 0 c 14.65,58.43 -39.32,150.61 -95.01,171.02 20.66,-92.93 25.09,-105.27 95.01,-171.02 z m -94.9,86.7 v 0 c -1.18,63.79 -81.88,143.11 -144.46,148.55 46.84,-89.31 54.77,-100.68 144.46,-148.55 z m -117.62,76.89 v 0 c -20.57,60.42 -121.6,111.37 -182.86,97.48 71.82,-70.79 82.85,-79.2 182.86,-97.48 z m 87.1,-1031.29 v 0 c 36.92,11.6 40.7,15.29 64.49,45.43 -23.79,2.36 -59.56,-21.65 -64.49,-45.43 z m 74.81,18.76 v 0 c 30.05,24.4 32.19,29.22 43.22,65.98 -23,-6.57 -47.41,-42.03 -43.22,-65.98 z m 52.25,29.45 v 0 c 32.6,33.43 34.49,39.52 42.55,85.13 -26.64,-11.1 -50.92,-57.05 -42.55,-85.13 z m 51.17,52.84 v 0 c 28.63,36.89 29.82,43.16 32.72,89.38 -25.23,-14.01 -44.19,-62.41 -32.72,-89.38 z m 52.07,61.47 v 0 c 23.82,40.17 24.23,46.53 21.35,92.76 -23.28,-17.04 -36.08,-67.42 -21.35,-92.76 z m 41.9,57.31 v 0 c 18.93,42.7 18.58,49.05 10.28,94.63 -21.1,-19.67 -27.9,-71.18 -10.28,-94.63 z m 47.32,55.71 v 0 c 16.2,58.52 14.55,66.62 -4.82,123.65 -23.4,-29.31 -22.3,-96.87 4.82,-123.65 z m 32.91,96.93 v 0 c 6.75,60.33 3.84,68.09 -24.29,121.33 -18.48,-32.64 -6.72,-99.17 24.29,-121.33 z m 36.8,197.19 v 0 c -14.29,70.12 -20.37,77.76 -71.22,127.29 -8.9,-43.31 28.41,-113.68 71.22,-127.29 z m 5.14,97.25 v 0 c -31.56,77.02 -40.17,84.43 -109.02,129.96 -0.77,-51.41 57.16,-123.71 109.02,-129.96 z m -19.52,118.92 v 0 c -46.6,68.97 -56.53,74.49 -133.22,105.04 9.73,-50.48 81.15,-109.48 133.22,-105.04 z m -30.64,100.87 v 0 c -63.51,65.57 -75.27,69.61 -163.93,87.95 20.16,-52.66 108.57,-102.7 163.93,-87.95 z m -74.41,105.92 v 0 c -74.02,53.41 -86.32,55.31 -176.82,57.81 29.1,-48.31 124.91,-82.05 176.82,-57.81 z m -82.36,107.09 v 0 c -92.56,42.05 -106.41,41.43 -205.78,24.27 42.38,-46.34 154.43,-62.14 205.78,-24.27 z m -116.02,83.14 v 0 c -99.18,22.35 -112.61,18.92 -206.42,-18.09 50.94,-36.78 163.85,-29.43 206.42,18.09 z m 208.27,-228.54 v 0 c 5.12,0 9.27,4.15 9.27,9.29 0,5.11 -4.15,9.27 -9.27,9.27 -5.13,0 -9.29,-4.15 -9.29,-9.27 0,-5.15 4.15,-9.29 9.29,-9.29 z m -1132.3,0 v 0 c 5.12,0 9.28,4.15 9.28,9.29 0,5.11 -4.16,9.27 -9.28,9.27 -5.11,0 -9.28,-4.15 -9.28,-9.27 0,-5.15 4.16,-9.29 9.28,-9.29 z M 655.31,307.18 v 0 c -1.83,0 -3.3,1.49 -3.3,3.31 0,1.81 1.48,3.3 3.3,3.3 1.83,0 3.3,-1.49 3.3,-3.3 -0.01,-1.81 -1.48,-3.31 -3.3,-3.31 z m -55.14,27.14 v 0 c 1.82,0 3.3,1.47 3.3,3.31 0,1.81 -1.48,3.3 -3.3,3.3 -1.83,0 -3.31,-1.49 -3.31,-3.3 0,-1.84 1.48,-3.31 3.31,-3.31 z m -53.82,42.47 v 0 c 1.83,0 3.31,1.49 3.31,3.32 0,1.82 -1.48,3.28 -3.31,3.28 -1.82,0 -3.3,-1.47 -3.3,-3.28 0.01,-1.82 1.49,-3.32 3.3,-3.32 z m -47.01,55.92 v 0 c 2.67,0 4.81,2.16 4.81,4.81 0,2.65 -2.15,4.81 -4.81,4.81 -2.64,0 -4.8,-2.16 -4.8,-4.81 0,-2.65 2.17,-4.81 4.8,-4.81 z m -44.99,54.97 v 0 c 3.3,0 5.97,2.67 5.97,5.98 0,3.29 -2.67,5.96 -5.97,5.96 -3.29,0 -5.97,-2.68 -5.97,-5.96 0.01,-3.31 2.69,-5.98 5.97,-5.98 z m -40.09,60.59 v 0 c 3.31,0 5.98,2.67 5.98,5.98 0,3.3 -2.67,5.97 -5.98,5.97 -3.29,0 -5.97,-2.66 -5.97,-5.97 0,-3.31 2.68,-5.98 5.97,-5.98 z m -41.88,85.54 v 0 c -4.03,0 -7.3,3.26 -7.3,7.3 0,4.05 3.27,7.32 7.3,7.32 4.04,0 7.31,-3.27 7.31,-7.32 0,-4.05 -3.27,-7.3 -7.31,-7.3 z m -27.17,85.52 v 0 c -4.03,0 -7.31,3.28 -7.31,7.32 0,4.03 3.28,7.29 7.31,7.29 4.04,0 7.32,-3.26 7.32,-7.29 -0.01,-4.05 -3.28,-7.32 -7.32,-7.32 z m -12.68,106.63 v 0 c 4.03,0 7.31,3.27 7.31,7.3 0,4.05 -3.27,7.32 -7.31,7.32 -4.03,0 -7.3,-3.27 -7.3,-7.32 -0.01,-4.03 3.27,-7.3 7.3,-7.3 z m -3.17,100.42 v 0 c -4.63,0 -8.36,3.74 -8.36,8.37 0,4.61 3.73,8.35 8.36,8.35 4.61,0 8.36,-3.75 8.36,-8.35 0,-4.63 -3.75,-8.37 -8.36,-8.37 z m 14.36,108.73 v 0 c -5.13,0 -9.29,4.14 -9.29,9.26 0,5.14 4.16,9.29 9.29,9.29 5.12,0 9.27,-4.15 9.27,-9.29 0,-5.12 -4.15,-9.26 -9.27,-9.26 z m 31.32,103.09 v 0 c -5.14,0 -9.29,4.16 -9.29,9.29 0,5.12 4.15,9.27 9.29,9.27 5.12,0 9.28,-4.15 9.28,-9.27 0,-5.13 -4.16,-9.29 -9.28,-9.29 z m 153.58,207.44 v 0 c 5.12,0 9.28,4.16 9.28,9.27 0,5.13 -4.16,9.28 -9.28,9.28 -5.12,0 -9.27,-4.16 -9.27,-9.28 0,-5.11 4.15,-9.27 9.27,-9.27 z m 91.76,90.42 v 0 c 5.12,0 9.28,4.16 9.28,9.29 0,5.12 -4.16,9.28 -9.28,9.28 -5.13,0 -9.28,-4.16 -9.28,-9.28 0,-5.12 4.15,-9.29 9.28,-9.29 z m 132.98,65.74 v 0 c 6.27,0 11.36,5.09 11.36,11.37 0,6.27 -5.09,11.36 -11.36,11.36 -6.29,0 -11.38,-5.09 -11.38,-11.36 0.01,-6.28 5.1,-11.37 11.38,-11.37 z M 1349.38,307.18 v 0 c -1.82,0 -3.3,1.49 -3.3,3.31 0,1.81 1.49,3.3 3.3,3.3 1.83,0 3.3,-1.49 3.3,-3.3 0,-1.81 -1.47,-3.31 -3.3,-3.31 z m 55.16,27.14 v 0 c 1.82,0 3.3,1.47 3.3,3.31 0,1.81 -1.47,3.3 -3.3,3.3 -1.84,0 -3.31,-1.49 -3.31,-3.3 0,-1.84 1.48,-3.31 3.31,-3.31 z m 53.79,42.47 v 0 c 1.82,0 3.29,1.49 3.29,3.32 0,1.82 -1.48,3.28 -3.29,3.28 -1.83,0 -3.3,-1.47 -3.3,-3.28 0.01,-1.82 1.47,-3.32 3.3,-3.32 z m 47.01,55.92 v 0 c 2.66,0 4.81,2.16 4.81,4.81 0,2.65 -2.15,4.81 -4.81,4.81 -2.64,0 -4.79,-2.16 -4.79,-4.81 0,-2.65 2.15,-4.81 4.79,-4.81 z m 45,54.97 v 0 c 3.3,0 5.97,2.67 5.97,5.98 0,3.29 -2.67,5.96 -5.97,5.96 -3.3,0 -5.98,-2.68 -5.98,-5.96 0,-3.31 2.69,-5.98 5.98,-5.98 z m 40.1,60.59 v 0 c 3.3,0 5.97,2.67 5.97,5.98 0,3.3 -2.67,5.97 -5.97,5.97 -3.3,0 -5.98,-2.66 -5.98,-5.97 0,-3.31 2.68,-5.98 5.98,-5.98 z m 41.87,85.54 v 0 c 4.03,0 7.3,3.26 7.3,7.3 0,4.05 -3.27,7.32 -7.3,7.32 -4.04,0 -7.31,-3.27 -7.31,-7.32 0,-4.05 3.28,-7.3 7.31,-7.3 z m 27.18,85.52 v 0 c 4.03,0 7.31,3.28 7.31,7.32 0,4.03 -3.28,7.29 -7.31,7.29 -4.05,0 -7.31,-3.26 -7.31,-7.29 0,-4.05 3.26,-7.32 7.31,-7.32 z m 12.67,106.63 v 0 c -4.03,0 -7.3,3.27 -7.3,7.3 0,4.05 3.28,7.32 7.3,7.32 4.04,0 7.31,-3.27 7.31,-7.32 0.01,-4.03 -3.26,-7.3 -7.31,-7.3 z m 3.18,100.42 v 0 c -4.61,0 -8.36,3.74 -8.36,8.37 0,4.61 3.74,8.35 8.36,8.35 4.62,0 8.35,-3.75 8.35,-8.35 0,-4.63 -3.73,-8.37 -8.35,-8.37 z m -14.35,108.73 v 0 c -5.13,0 -9.29,4.14 -9.29,9.26 0,5.14 4.16,9.29 9.29,9.29 5.12,0 9.28,-4.15 9.28,-9.29 0,-5.12 -4.16,-9.26 -9.28,-9.26 z m -31.33,103.09 v 0 c -5.13,0 -9.29,4.16 -9.29,9.29 0,5.12 4.17,9.27 9.29,9.27 5.12,0 9.28,-4.15 9.28,-9.27 0,-5.13 -4.16,-9.29 -9.28,-9.29 z m -153.58,207.44 v 0 c 5.13,0 9.27,4.16 9.27,9.27 0,5.13 -4.15,9.28 -9.27,9.28 -5.13,0 -9.29,-4.16 -9.29,-9.28 0,-5.11 4.16,-9.27 9.29,-9.27 z m -91.76,90.42 v 0 c 5.13,0 9.29,4.16 9.29,9.29 0,5.12 -4.17,9.28 -9.29,9.28 -5.13,0 -9.28,-4.16 -9.28,-9.28 0,-5.12 4.15,-9.29 9.28,-9.29 z" />
		</defs>
		<clipPath
   id="SVGID_2_">
			<use
   xlink:href="#SVGID_1_"
   style="overflow:visible"
   id="use9"
   x="0"
   y="0"
   width="100%"
   height="100%" />
		</clipPath>
		<linearGradient
   id="SVGID_3_"
   gradientUnits="userSpaceOnUse"
   x1="-60.544498"
   y1="1008.5272"
   x2="2138.7319"
   y2="1008.5272">
			<stop
   offset="0"
   style="stop-color:#B57E10"
   id="stop12" />
			<stop
   offset="0.2222"
   style="stop-color:#E5C35C"
   id="stop14" />
			<stop
   offset="0.328"
   style="stop-color:#F9DF7B"
   id="stop16" />
			<stop
   offset="0.524"
   style="stop-color:#FFF3A6"
   id="stop18" />
			<stop
   offset="0.7298"
   style="stop-color:#F9DF7B"
   id="stop20" />
			<stop
   offset="1"
   style="stop-color:#B57E10"
   id="stop22" />
		</linearGradient>
		<path
   class="st1"
   d="M 2133.37,2012.78 H -55.18 c -2.96,0 -5.36,-2.4 -5.36,-5.36 V 9.64 c 0,-2.96 2.4,-5.36 5.36,-5.36 h 2188.55 c 2.96,0 5.36,2.4 5.36,5.36 v 1997.78 c 0,2.96 -2.4,5.36 -5.36,5.36 z"
   clip-path="url(#SVGID_2_)"
   id="path25"
   style="fill:url(#SVGID_3_);stroke-width:3.19994" />
	</g>
	<g
   id="g241"
   style="stroke-width:3.19994">
		<g
   id="g239"
   style="stroke-width:3.19994">
			<g
   id="g46"
   style="stroke-width:3.19994">
				<linearGradient
   id="SVGID_4_"
   gradientUnits="userSpaceOnUse"
   x1="1427.7365"
   y1="1458.9437"
   x2="1741.4041"
   y2="1458.9437">
					<stop
   offset="0"
   style="stop-color:#B37E10"
   id="stop29" />
					<stop
   offset="0.2222"
   style="stop-color:#E4C15C"
   id="stop31" />
					<stop
   offset="0.328"
   style="stop-color:#F8DD7B"
   id="stop33" />
					<stop
   offset="0.524"
   style="stop-color:#FDF1A4"
   id="stop35" />
					<stop
   offset="0.7298"
   style="stop-color:#F8DD7B"
   id="stop37" />
					<stop
   offset="1"
   style="stop-color:#B37E10"
   id="stop39" />
				</linearGradient>
				<polygon
   class="st2"
   points="1741.4,1375.31 1494.47,1302.88 1427.74,1542.58 1674.67,1615.01 1649.66,1478.03 "
   id="polygon42"
   style="fill:url(#SVGID_4_);stroke-width:3.19994" />
				<path
   class="st3"
   d="m 1427.74,1542.58 61.68,0.94 c 18.62,0.28 35.11,-12.29 40.22,-30.66 l 2.34,-8.42 -86.56,-25.39 z"
   id="path44"
   style="stroke-width:3.19994" />
			</g>
			<g
   id="g110"
   style="stroke-width:3.19994">
				<g
   id="g77"
   style="stroke-width:3.19994">
					<linearGradient
   id="SVGID_5_"
   gradientUnits="userSpaceOnUse"
   x1="1422.0485"
   y1="1464.3494"
   x2="1750.6039"
   y2="1464.3494">
						<stop
   offset="0"
   style="stop-color:#F8DD7B"
   id="stop48" />
						<stop
   offset="0.2038"
   style="stop-color:#B37E10"
   id="stop50" />
						<stop
   offset="0.2643"
   style="stop-color:#B58114"
   id="stop52" />
						<stop
   offset="0.3227"
   style="stop-color:#BD8C1F"
   id="stop54" />
						<stop
   offset="0.3803"
   style="stop-color:#CA9D33"
   id="stop56" />
						<stop
   offset="0.4373"
   style="stop-color:#DBB54E"
   id="stop58" />
						<stop
   offset="0.4935"
   style="stop-color:#F2D471"
   id="stop60" />
						<stop
   offset="0.5077"
   style="stop-color:#F8DD7B"
   id="stop62" />
						<stop
   offset="0.5189"
   style="stop-color:#FDF1A4"
   id="stop64" />
						<stop
   offset="0.5934"
   style="stop-color:#F8DD7B"
   id="stop66" />
						<stop
   offset="0.8428"
   style="stop-color:#B37E10"
   id="stop68" />
						<stop
   offset="0.9493"
   style="stop-color:#E4C15C"
   id="stop70" />
						<stop
   offset="1"
   style="stop-color:#F8DD7B"
   id="stop72" />
					</linearGradient>
					<path
   class="st4"
   d="m 1681.2,1627 -259.16,-76.01 69.4,-249.28 259.15,76.01 -95.42,106.83 z m -247.15,-82.86 234.72,68.84 -24.02,-131.5 88.08,-98.62 -234.72,-68.84 z"
   id="path75"
   style="fill:url(#SVGID_5_);stroke-width:3.19994" />
				</g>
				<g
   id="g108"
   style="stroke-width:3.19994">
					<linearGradient
   id="SVGID_6_"
   gradientUnits="userSpaceOnUse"
   x1="1421.641"
   y1="1518.0737"
   x2="1536.9631"
   y2="1518.0737">
						<stop
   offset="0"
   style="stop-color:#F8DD7B"
   id="stop79" />
						<stop
   offset="0.2038"
   style="stop-color:#B37E10"
   id="stop81" />
						<stop
   offset="0.2643"
   style="stop-color:#B58114"
   id="stop83" />
						<stop
   offset="0.3227"
   style="stop-color:#BD8C1F"
   id="stop85" />
						<stop
   offset="0.3803"
   style="stop-color:#CA9D33"
   id="stop87" />
						<stop
   offset="0.4373"
   style="stop-color:#DBB54E"
   id="stop89" />
						<stop
   offset="0.4935"
   style="stop-color:#F2D471"
   id="stop91" />
						<stop
   offset="0.5077"
   style="stop-color:#F8DD7B"
   id="stop93" />
						<stop
   offset="0.5189"
   style="stop-color:#FDF1A4"
   id="stop95" />
						<stop
   offset="0.5934"
   style="stop-color:#F8DD7B"
   id="stop97" />
						<stop
   offset="0.8428"
   style="stop-color:#B37E10"
   id="stop99" />
						<stop
   offset="0.9493"
   style="stop-color:#E4C15C"
   id="stop101" />
						<stop
   offset="1"
   style="stop-color:#F8DD7B"
   id="stop103" />
					</linearGradient>
					<path
   class="st5"
   d="m 1490.34,1553.49 c -0.23,0 -0.46,0 -0.69,0 l -68.01,-1.03 19.43,-69.79 9.33,2.74 -15.95,57.28 55.34,0.84 c 0.18,0 0.36,0 0.54,0 16.17,0 30.49,-11.05 34.94,-27.05 l 2.34,-8.42 9.34,2.74 -2.34,8.42 c -5.64,20.26 -23.78,34.27 -44.27,34.27 z"
   id="path106"
   style="fill:url(#SVGID_6_);stroke-width:3.19994" />
				</g>
			</g>
			<g
   id="g129"
   style="stroke-width:3.19994">
				<linearGradient
   id="SVGID_7_"
   gradientUnits="userSpaceOnUse"
   x1="102.8117"
   y1="1462.6831"
   x2="463.85211"
   y2="1462.6831">
					<stop
   offset="0"
   style="stop-color:#B37E10"
   id="stop112" />
					<stop
   offset="0.2222"
   style="stop-color:#E4C15C"
   id="stop114" />
					<stop
   offset="0.328"
   style="stop-color:#F8DD7B"
   id="stop116" />
					<stop
   offset="0.524"
   style="stop-color:#FDF1A4"
   id="stop118" />
					<stop
   offset="0.7298"
   style="stop-color:#F8DD7B"
   id="stop120" />
					<stop
   offset="1"
   style="stop-color:#B37E10"
   id="stop122" />
				</linearGradient>
				<polygon
   class="st6"
   points="262.69,1381.19 508.67,1305.41 578.49,1544.18 332.51,1619.96 355.75,1482.66 "
   id="polygon125"
   style="fill:url(#SVGID_7_);stroke-width:3.19994" />
				<path
   class="st3"
   d="m 578.49,1544.18 -61.66,1.78 c -18.61,0.54 -35.26,-11.81 -40.62,-30.11 l -2.45,-8.39 86.22,-26.56 z"
   id="path127"
   style="stroke-width:3.19994" />
			</g>
			<g
   id="g160"
   style="stroke-width:3.19994">
				<linearGradient
   id="SVGID_8_"
   gradientUnits="userSpaceOnUse"
   x1="254.08279"
   y1="1468.1089"
   x2="584.8454"
   y2="1468.1089">
					<stop
   offset="0"
   style="stop-color:#F8DD7B"
   id="stop131" />
					<stop
   offset="0.2038"
   style="stop-color:#B37E10"
   id="stop133" />
					<stop
   offset="0.2643"
   style="stop-color:#B58114"
   id="stop135" />
					<stop
   offset="0.3227"
   style="stop-color:#BD8C1F"
   id="stop137" />
					<stop
   offset="0.3803"
   style="stop-color:#CA9D33"
   id="stop139" />
					<stop
   offset="0.4373"
   style="stop-color:#DBB54E"
   id="stop141" />
					<stop
   offset="0.4935"
   style="stop-color:#F2D471"
   id="stop143" />
					<stop
   offset="0.5077"
   style="stop-color:#F8DD7B"
   id="stop145" />
					<stop
   offset="0.5189"
   style="stop-color:#FDF1A4"
   id="stop147" />
					<stop
   offset="0.5934"
   style="stop-color:#F8DD7B"
   id="stop149" />
					<stop
   offset="0.8428"
   style="stop-color:#B37E10"
   id="stop151" />
					<stop
   offset="0.9493"
   style="stop-color:#E4C15C"
   id="stop153" />
					<stop
   offset="1"
   style="stop-color:#F8DD7B"
   id="stop155" />
				</linearGradient>
				<path
   class="st7"
   d="m 326.69,1632.03 24.18,-142.79 -96.79,-105.53 258.15,-79.53 72.61,248.32 z m -54.77,-243.41 89.35,97.41 -22.32,131.81 233.81,-72.03 -67.03,-229.23 z"
   id="path158"
   style="fill:url(#SVGID_8_);stroke-width:3.19994" />
			</g>
			<linearGradient
   id="SVGID_9_"
   gradientUnits="userSpaceOnUse"
   x1="399.03491"
   y1="1343.2153"
   x2="1605.6519"
   y2="1343.2153">
				<stop
   offset="0"
   style="stop-color:#B37E10"
   id="stop162" />
				<stop
   offset="0.2222"
   style="stop-color:#E4C15C"
   id="stop164" />
				<stop
   offset="0.328"
   style="stop-color:#F8DD7B"
   id="stop166" />
				<stop
   offset="0.524"
   style="stop-color:#FDF1A4"
   id="stop168" />
				<stop
   offset="0.7298"
   style="stop-color:#F8DD7B"
   id="stop170" />
				<stop
   offset="1"
   style="stop-color:#B37E10"
   id="stop172" />
			</linearGradient>
			<path
   class="st8"
   d="m 1530.6,1510.8 c -343.34,-114.5 -713.18,-114.5 -1056.51,0 -25.02,-79.03 -50.04,-158.06 -75.05,-237.09 392.12,-130.77 814.5,-130.77 1206.62,0 -25.03,79.03 -50.04,158.06 -75.06,237.09 z"
   id="path175"
   style="fill:url(#SVGID_9_);stroke-width:3.19994" />
			<g
   id="g206"
   style="stroke-width:3.19994">
				<linearGradient
   id="SVGID_10_"
   gradientUnits="userSpaceOnUse"
   x1="469.42249"
   y1="1520.1903"
   x2="585.27191"
   y2="1520.1903">
					<stop
   offset="0"
   style="stop-color:#F8DD7B"
   id="stop177" />
					<stop
   offset="0.2038"
   style="stop-color:#B37E10"
   id="stop179" />
					<stop
   offset="0.2643"
   style="stop-color:#B58114"
   id="stop181" />
					<stop
   offset="0.3227"
   style="stop-color:#BD8C1F"
   id="stop183" />
					<stop
   offset="0.3803"
   style="stop-color:#CA9D33"
   id="stop185" />
					<stop
   offset="0.4373"
   style="stop-color:#DBB54E"
   id="stop187" />
					<stop
   offset="0.4935"
   style="stop-color:#F2D471"
   id="stop189" />
					<stop
   offset="0.5077"
   style="stop-color:#F8DD7B"
   id="stop191" />
					<stop
   offset="0.5189"
   style="stop-color:#FDF1A4"
   id="stop193" />
					<stop
   offset="0.5934"
   style="stop-color:#F8DD7B"
   id="stop195" />
					<stop
   offset="0.8428"
   style="stop-color:#B37E10"
   id="stop197" />
					<stop
   offset="0.9493"
   style="stop-color:#E4C15C"
   id="stop199" />
					<stop
   offset="1"
   style="stop-color:#F8DD7B"
   id="stop201" />
				</linearGradient>
				<path
   class="st9"
   d="m 515.98,1555.94 c -20.24,0 -38.26,-13.69 -44.11,-33.68 l -2.45,-8.39 9.3,-2.86 2.45,8.39 c 4.71,16.11 19.43,27.05 35.83,26.57 l 55.32,-1.59 -16.69,-57.06 9.3,-2.87 20.33,69.52 -67.99,1.96 c -0.42,0 -0.85,0.01 -1.29,0.01 z"
   id="path204"
   style="fill:url(#SVGID_10_);stroke-width:3.19994" />
			</g>
			<g
   id="g237"
   style="stroke-width:3.19994">
				<linearGradient
   id="SVGID_11_"
   gradientUnits="userSpaceOnUse"
   x1="393.23141"
   y1="1348.8462"
   x2="1612.083"
   y2="1348.8462">
					<stop
   offset="0"
   style="stop-color:#F8DD7B"
   id="stop208" />
					<stop
   offset="0.2038"
   style="stop-color:#B37E10"
   id="stop210" />
					<stop
   offset="0.2643"
   style="stop-color:#B58114"
   id="stop212" />
					<stop
   offset="0.3227"
   style="stop-color:#BD8C1F"
   id="stop214" />
					<stop
   offset="0.3803"
   style="stop-color:#CA9D33"
   id="stop216" />
					<stop
   offset="0.4373"
   style="stop-color:#DBB54E"
   id="stop218" />
					<stop
   offset="0.4935"
   style="stop-color:#F2D471"
   id="stop220" />
					<stop
   offset="0.5077"
   style="stop-color:#F8DD7B"
   id="stop222" />
					<stop
   offset="0.5189"
   style="stop-color:#FDF1A4"
   id="stop224" />
					<stop
   offset="0.5934"
   style="stop-color:#F8DD7B"
   id="stop226" />
					<stop
   offset="0.8428"
   style="stop-color:#B37E10"
   id="stop228" />
					<stop
   offset="0.9493"
   style="stop-color:#E4C15C"
   id="stop230" />
					<stop
   offset="1"
   style="stop-color:#F8DD7B"
   id="stop232" />
				</linearGradient>
				<path
   class="st10"
   d="m 1534.03,1522.06 -4.62,-1.54 c -170.38,-56.82 -347.61,-85.64 -526.76,-85.64 -179.15,0 -356.38,28.81 -526.76,85.64 l -4.62,1.54 -78.05,-246.57 4.62,-1.54 c 195.63,-65.24 399.11,-98.32 604.81,-98.32 205.7,0 409.18,33.08 604.81,98.32 l 4.62,1.54 z m -531.37,-97.14 c 178.55,0 355.2,28.46 525.14,84.59 l 72.05,-227.61 c -193.23,-63.9 -394.14,-96.3 -597.19,-96.3 -203.05,0 -403.96,32.4 -597.19,96.3 l 72.05,227.61 c 169.94,-56.13 346.58,-84.59 525.14,-84.59 z"
   id="path235"
   style="fill:url(#SVGID_11_);stroke-width:3.19994" />
			</g>
		</g>
	</g>
	<g
   id="g390"
   style="stroke-width:3.19994">
		<g
   id="g363"
   style="stroke-width:3.19994">
			<linearGradient
   id="SVGID_12_"
   gradientUnits="userSpaceOnUse"
   x1="599.7168"
   y1="792.57593"
   x2="1006.0131"
   y2="792.57593">
				<stop
   offset="0"
   style="stop-color:#FFFFFF"
   id="stop243" />
				<stop
   offset="0.0342"
   style="stop-color:#FEFAE9"
   id="stop245" />
				<stop
   offset="0.1628"
   style="stop-color:#FAE79A"
   id="stop247" />
				<stop
   offset="0.2219"
   style="stop-color:#F9DF7B"
   id="stop249" />
				<stop
   offset="0.524"
   style="stop-color:#FFF3A6"
   id="stop251" />
				<stop
   offset="0.7298"
   style="stop-color:#F9DF7B"
   id="stop253" />
				<stop
   offset="1"
   style="stop-color:#B57E10"
   id="stop255" />
			</linearGradient>
			<linearGradient
   id="SVGID_13_"
   gradientUnits="userSpaceOnUse"
   x1="593.28412"
   y1="792.57593"
   x2="1011.0131"
   y2="792.57593">
				<stop
   offset="0"
   style="stop-color:#FFF3A6"
   id="stop258" />
				<stop
   offset="0.0216"
   style="stop-color:#EDD681"
   id="stop260" />
				<stop
   offset="0.049"
   style="stop-color:#D9B85A"
   id="stop262" />
				<stop
   offset="0.076"
   style="stop-color:#CA9F3A"
   id="stop264" />
				<stop
   offset="0.1022"
   style="stop-color:#BF8E24"
   id="stop266" />
				<stop
   offset="0.1271"
   style="stop-color:#B88417"
   id="stop268" />
				<stop
   offset="0.1495"
   style="stop-color:#B68012"
   id="stop270" />
				<stop
   offset="0.2316"
   style="stop-color:#C7982C"
   id="stop272" />
				<stop
   offset="0.3211"
   style="stop-color:#D4AB42"
   id="stop274" />
				<stop
   offset="0.4081"
   style="stop-color:#DCB64F"
   id="stop276" />
				<stop
   offset="0.4892"
   style="stop-color:#DFBA53"
   id="stop278" />
				<stop
   offset="0.5796"
   style="stop-color:#DCB64F"
   id="stop280" />
				<stop
   offset="0.6737"
   style="stop-color:#D4AB42"
   id="stop282" />
				<stop
   offset="0.7692"
   style="stop-color:#C7992E"
   id="stop284" />
				<stop
   offset="0.8616"
   style="stop-color:#B68012"
   id="stop286" />
				<stop
   offset="0.8836"
   style="stop-color:#B88316"
   id="stop288" />
				<stop
   offset="0.9065"
   style="stop-color:#BE8D23"
   id="stop290" />
				<stop
   offset="0.9297"
   style="stop-color:#C89D37"
   id="stop292" />
				<stop
   offset="0.9533"
   style="stop-color:#D7B455"
   id="stop294" />
				<stop
   offset="0.9768"
   style="stop-color:#E9D07A"
   id="stop296" />
				<stop
   offset="1"
   style="stop-color:#FFF3A6"
   id="stop298" />
			</linearGradient>
			<path
   class="st11"
   d="m 796.34,969.62 h 209.67 v 115.23 H 601.35 V 987.29 L 810.21,781.23 c 29.37,-29.44 46.5,-53.83 46.5,-89.99 0,-51.31 -34.27,-73.17 -70.16,-73.17 -46.5,0 -78.32,28.6 -111.77,63.08 l -75.06,-88.31 c 28.56,-37.01 100.35,-92.52 201.52,-92.52 117.48,0 199.07,63.08 199.07,178.31 0,80.74 -35.08,132.89 -79.95,174.1 L 796.34,967.94 Z"
   id="path301"
   style="fill:url(#SVGID_12_);stroke:url(#SVGID_13_)" />
			<linearGradient
   id="SVGID_14_"
   gradientUnits="userSpaceOnUse"
   x1="1032.1238"
   y1="792.57593"
   x2="1438.42"
   y2="792.57593">
				<stop
   offset="0"
   style="stop-color:#FFFFFF"
   id="stop303" />
				<stop
   offset="0.0342"
   style="stop-color:#FEFAE9"
   id="stop305" />
				<stop
   offset="0.1628"
   style="stop-color:#FAE79A"
   id="stop307" />
				<stop
   offset="0.2219"
   style="stop-color:#F9DF7B"
   id="stop309" />
				<stop
   offset="0.524"
   style="stop-color:#FFF3A6"
   id="stop311" />
				<stop
   offset="0.7298"
   style="stop-color:#F9DF7B"
   id="stop313" />
				<stop
   offset="1"
   style="stop-color:#B57E10"
   id="stop315" />
			</linearGradient>
			<linearGradient
   id="SVGID_15_"
   gradientUnits="userSpaceOnUse"
   x1="1025.691"
   y1="792.57593"
   x2="1443.42"
   y2="792.57593">
				<stop
   offset="0"
   style="stop-color:#FFF3A6"
   id="stop318" />
				<stop
   offset="0.0216"
   style="stop-color:#EDD681"
   id="stop320" />
				<stop
   offset="0.049"
   style="stop-color:#D9B85A"
   id="stop322" />
				<stop
   offset="0.076"
   style="stop-color:#CA9F3A"
   id="stop324" />
				<stop
   offset="0.1022"
   style="stop-color:#BF8E24"
   id="stop326" />
				<stop
   offset="0.1271"
   style="stop-color:#B88417"
   id="stop328" />
				<stop
   offset="0.1495"
   style="stop-color:#B68012"
   id="stop330" />
				<stop
   offset="0.2316"
   style="stop-color:#C7982C"
   id="stop332" />
				<stop
   offset="0.3211"
   style="stop-color:#D4AB42"
   id="stop334" />
				<stop
   offset="0.4081"
   style="stop-color:#DCB64F"
   id="stop336" />
				<stop
   offset="0.4892"
   style="stop-color:#DFBA53"
   id="stop338" />
				<stop
   offset="0.5796"
   style="stop-color:#DCB64F"
   id="stop340" />
				<stop
   offset="0.6737"
   style="stop-color:#D4AB42"
   id="stop342" />
				<stop
   offset="0.7692"
   style="stop-color:#C7992E"
   id="stop344" />
				<stop
   offset="0.8616"
   style="stop-color:#B68012"
   id="stop346" />
				<stop
   offset="0.8836"
   style="stop-color:#B88316"
   id="stop348" />
				<stop
   offset="0.9065"
   style="stop-color:#BE8D23"
   id="stop350" />
				<stop
   offset="0.9297"
   style="stop-color:#C89D37"
   id="stop352" />
				<stop
   offset="0.9533"
   style="stop-color:#D7B455"
   id="stop354" />
				<stop
   offset="0.9768"
   style="stop-color:#E9D07A"
   id="stop356" />
				<stop
   offset="1"
   style="stop-color:#FFF3A6"
   id="stop358" />
			</linearGradient>
			<path
   class="st12"
   d="m 1228.75,969.62 h 209.67 v 115.23 h -404.66 v -97.56 l 208.86,-206.06 c 29.37,-29.44 46.5,-53.83 46.5,-89.99 0,-51.31 -34.27,-73.17 -70.16,-73.17 -46.5,0 -78.32,28.6 -111.77,63.08 l -75.06,-88.31 c 28.56,-37.01 100.35,-92.52 201.52,-92.52 117.48,0 199.07,63.08 199.07,178.31 0,80.74 -35.08,132.89 -79.95,174.1 l -124.01,115.23 v 1.66 z"
   id="path361"
   style="fill:url(#SVGID_14_);stroke:url(#SVGID_15_)" />
		</g>
		<g
   id="g388"
   style="stroke-width:3.19994">
			<defs
   id="defs366">
				<path
   id="SVGID_16_"
   d="m 796.34,969.62 h 209.68 v 115.23 H 601.35 V 987.28 L 810.21,781.22 c 29.37,-29.44 46.5,-53.83 46.5,-90 0,-51.31 -34.27,-73.17 -70.17,-73.17 -46.5,0 -78.32,28.6 -111.77,63.08 l -75.06,-88.31 c 28.56,-37.01 100.35,-92.52 201.52,-92.52 117.49,0 199.07,63.08 199.07,178.31 0,80.74 -35.08,132.89 -79.96,174.1 l -124,115.23 z m 432.41,0 h 209.68 v 115.23 h -404.67 v -97.57 l 208.86,-206.06 c 29.37,-29.44 46.5,-53.83 46.5,-90 0,-51.31 -34.27,-73.17 -70.17,-73.17 -46.5,0 -78.32,28.6 -111.77,63.08 l -75.06,-88.31 c 28.55,-37.01 100.35,-92.52 201.52,-92.52 117.49,0 199.07,63.08 199.07,178.31 0,80.74 -35.08,132.89 -79.96,174.1 l -124.01,115.23 v 1.68 z" />
			</defs>
			<clipPath
   id="SVGID_17_">
				<use
   xlink:href="#SVGID_16_"
   style="overflow:visible"
   id="use368"
   x="0"
   y="0"
   width="100%"
   height="100%" />
			</clipPath>
			<linearGradient
   id="SVGID_18_"
   gradientUnits="userSpaceOnUse"
   x1="481.54071"
   y1="819.03137"
   x2="1549.7842"
   y2="819.03137">
				<stop
   offset="0"
   style="stop-color:#FFFFFF"
   id="stop371" />
				<stop
   offset="0.0342"
   style="stop-color:#FEFAE9"
   id="stop373" />
				<stop
   offset="0.1628"
   style="stop-color:#FAE79A"
   id="stop375" />
				<stop
   offset="0.2219"
   style="stop-color:#F9DF7B"
   id="stop377" />
				<stop
   offset="0.524"
   style="stop-color:#FFF3A6"
   id="stop379" />
				<stop
   offset="0.7298"
   style="stop-color:#F9DF7B"
   id="stop381" />
				<stop
   offset="1"
   style="stop-color:#B57E10"
   id="stop383" />
			</linearGradient>
			<path
   class="st13"
   d="M 1544.42,1308.69 H 486.9 c -2.96,0 -5.36,-2.4 -5.36,-5.36 V 334.74 c 0,-2.96 2.4,-5.36 5.36,-5.36 h 1057.52 c 2.96,0 5.36,2.4 5.36,5.36 v 968.58 c 0,2.97 -2.4,5.37 -5.36,5.37 z"
   clip-path="url(#SVGID_17_)"
   id="path386"
   style="fill:url(#SVGID_18_);stroke-width:3.19994" />
		</g>
	</g>
	<g
   id="g493"
   style="stroke-width:3.19994">
		<g
   id="g491"
   style="stroke-width:3.19994">
			<linearGradient
   id="SVGID_19_"
   gradientUnits="userSpaceOnUse"
   x1="746.69818"
   y1="299.0827"
   x2="796.34857"
   y2="299.0827">
				<stop
   offset="0"
   style="stop-color:#E0BB41"
   id="stop392" />
				<stop
   offset="0.3672"
   style="stop-color:#E5C552"
   id="stop394" />
				<stop
   offset="1"
   style="stop-color:#EDD46B"
   id="stop396" />
			</linearGradient>
			<path
   class="st14"
   d="m 765.9,274.2 c 5.06,-1.64 11.01,-2.52 16.7,-1.94 -0.21,4.19 -0.31,6.28 -0.49,10.47 -4.97,-0.39 -8.33,-0.16 -12.89,1.37 -7.81,2.62 -10.58,10.67 -7.43,19.53 3.15,8.85 10.15,13.38 17.62,10.88 4.36,-1.46 7.06,-3.2 10.75,-6.32 2.5,3.34 3.74,5.02 6.2,8.37 -4.05,3.6 -9.13,6.15 -13.63,7.85 -14.07,5.29 -28.95,-2.4 -34.14,-15.93 -5.72,-14.89 2.01,-29.34 17.31,-34.28 z"
   id="path399"
   style="fill:url(#SVGID_19_);stroke-width:3.19994" />
			<linearGradient
   id="SVGID_20_"
   gradientUnits="userSpaceOnUse"
   x1="789.59479"
   y1="287.10339"
   x2="839.15253"
   y2="287.10339">
				<stop
   offset="0"
   style="stop-color:#E0BB41"
   id="stop401" />
				<stop
   offset="0.3672"
   style="stop-color:#E5C552"
   id="stop403" />
				<stop
   offset="1"
   style="stop-color:#EDD46B"
   id="stop405" />
			</linearGradient>
			<path
   class="st15"
   d="m 826.96,257.75 c 0.96,3.97 1.45,5.96 2.41,9.93 -9.47,2.3 -14.19,3.53 -23.6,6.15 1.07,3.85 1.61,5.78 2.68,9.63 8.23,-2.29 12.36,-3.38 20.64,-5.42 0.98,3.97 1.47,5.95 2.45,9.92 -8.16,2.01 -12.23,3.08 -20.35,5.34 1.08,3.88 1.62,5.82 2.7,9.7 9.11,-2.54 13.68,-3.73 22.85,-5.95 0.96,3.97 1.44,5.96 2.41,9.93 -11.76,2.85 -23.45,6.01 -35.04,9.48 -4.84,-16.2 -9.68,-32.39 -14.51,-48.59 12.36,-3.7 24.82,-7.07 37.36,-10.12 z"
   id="path408"
   style="fill:url(#SVGID_20_);stroke-width:3.19994" />
			<linearGradient
   id="SVGID_21_"
   gradientUnits="userSpaceOnUse"
   x1="836.54028"
   y1="278.7207"
   x2="881.58063"
   y2="278.7207">
				<stop
   offset="0"
   style="stop-color:#E0BB41"
   id="stop410" />
				<stop
   offset="0.3672"
   style="stop-color:#E5C552"
   id="stop412" />
				<stop
   offset="1"
   style="stop-color:#EDD46B"
   id="stop414" />
			</linearGradient>
			<path
   class="st16"
   d="m 850.15,252.51 c 2.76,13.21 5.53,26.42 8.29,39.64 8.52,-1.78 12.79,-2.61 21.35,-4.12 0.71,4.02 1.07,6.04 1.78,10.06 -11.3,2.1 -22.5,4.37 -33.73,6.84 -3.77,-16.48 -7.54,-32.96 -11.31,-49.43 5.45,-1.25 8.17,-1.85 13.62,-2.99 z"
   id="path417"
   style="fill:url(#SVGID_21_);stroke-width:3.19994" />
			<linearGradient
   id="SVGID_22_"
   gradientUnits="userSpaceOnUse"
   x1="879.74707"
   y1="269.27429"
   x2="923.8385"
   y2="269.27429">
				<stop
   offset="0"
   style="stop-color:#E0BB41"
   id="stop419" />
				<stop
   offset="0.3672"
   style="stop-color:#E5C552"
   id="stop421" />
				<stop
   offset="1"
   style="stop-color:#EDD46B"
   id="stop423" />
			</linearGradient>
			<path
   class="st17"
   d="m 917.85,241.59 c 0.46,4.06 0.7,6.09 1.16,10.15 -9.63,1.1 -14.44,1.73 -24.04,3.15 0.59,3.95 0.88,5.93 1.46,9.89 8.4,-1.24 12.61,-1.8 21.03,-2.8 0.48,4.06 0.72,6.09 1.2,10.15 -8.3,0.98 -12.45,1.53 -20.73,2.76 0.59,3.98 0.88,5.98 1.47,9.96 9.29,-1.38 13.95,-1.99 23.28,-3.05 0.46,4.06 0.69,6.09 1.16,10.15 -11.95,1.36 -23.86,3.04 -35.73,5.02 -2.79,-16.67 -5.58,-33.34 -8.36,-50.02 12.65,-2.12 25.35,-3.91 38.1,-5.36 z"
   id="path426"
   style="fill:url(#SVGID_22_);stroke-width:3.19994" />
			<linearGradient
   id="SVGID_23_"
   gradientUnits="userSpaceOnUse"
   x1="927.57953"
   y1="264.70441"
   x2="974.66559"
   y2="264.70441">
				<stop
   offset="0"
   style="stop-color:#E0BB41"
   id="stop428" />
				<stop
   offset="0.3672"
   style="stop-color:#E5C552"
   id="stop430" />
				<stop
   offset="1"
   style="stop-color:#EDD46B"
   id="stop432" />
			</linearGradient>
			<path
   class="st18"
   d="m 950.91,238.55 c 13.18,-0.91 20.12,2.91 20.53,12.67 0.23,5.51 -2.8,8.85 -6.41,10.68 0,0.06 0,0.09 0.01,0.15 5.85,1.64 9.17,5.23 9.6,11.28 0.77,10.85 -9.65,15.84 -19.15,15.73 -9.13,0.62 -13.69,1 -22.8,1.92 -1.7,-16.82 -3.4,-33.63 -5.1,-50.45 9.31,-0.93 13.98,-1.33 23.32,-1.98 z m 0.62,10.2 c -3.72,0.26 -5.58,0.4 -9.3,0.71 0.31,3.75 0.46,5.62 0.77,9.36 3.67,-0.3 5.51,-0.44 9.18,-0.7 3.65,-0.25 5.46,-1.78 5.26,-5.05 -0.2,-3.28 -2.21,-4.58 -5.91,-4.32 z m 2.56,18.73 c -4.13,0.28 -6.19,0.43 -10.31,0.77 0.37,4.55 0.56,6.82 0.94,11.37 4.06,-0.33 6.09,-0.49 10.15,-0.76 4.31,-0.29 6.28,-2.26 6.05,-6.14 -0.23,-3.86 -2.45,-5.53 -6.83,-5.24 z"
   id="path435"
   style="fill:url(#SVGID_23_);stroke-width:3.19994" />
			<linearGradient
   id="SVGID_24_"
   gradientUnits="userSpaceOnUse"
   x1="981.92798"
   y1="262.3403"
   x2="1027.7855"
   y2="262.3403">
				<stop
   offset="0"
   style="stop-color:#E0BB41"
   id="stop437" />
				<stop
   offset="0.3672"
   style="stop-color:#E5C552"
   id="stop439" />
				<stop
   offset="1"
   style="stop-color:#EDD46B"
   id="stop441" />
			</linearGradient>
			<path
   class="st19"
   d="m 983.32,287.74 c -0.46,-16.9 -0.93,-33.79 -1.39,-50.69 10.01,-0.27 15.01,-0.33 25.02,-0.27 10.04,-0.63 20.01,5.23 19.36,16.19 -0.43,7.32 -4.36,12.66 -11.66,14.4 5.4,7.7 8.03,11.58 13.13,19.38 -0.02,0.48 -0.03,0.72 -0.04,1.19 -5.62,-0.21 -8.43,-0.28 -14.04,-0.37 -4.92,-7.66 -7.45,-11.47 -12.64,-19.03 -2,0 -3,0.01 -4.99,0.03 0.07,7.58 0.1,11.36 0.17,18.94 -5.17,0.04 -7.76,0.09 -12.92,0.23 z m 22.52,-40.75 c -3.99,-0.02 -5.98,-0.01 -9.97,0.02 0.04,4.53 0.06,6.8 0.1,11.34 3.93,-0.03 5.89,-0.04 9.81,-0.02 3.8,0.02 6.35,-1.58 6.41,-5.61 0.06,-4.03 -2.49,-5.71 -6.35,-5.73 z"
   id="path444"
   style="fill:url(#SVGID_24_);stroke-width:3.19994" />
			<linearGradient
   id="SVGID_25_"
   gradientUnits="userSpaceOnUse"
   x1="1029.3309"
   y1="265.23679"
   x2="1082.1331"
   y2="265.23679">
				<stop
   offset="0"
   style="stop-color:#E0BB41"
   id="stop446" />
				<stop
   offset="0.3672"
   style="stop-color:#E5C552"
   id="stop448" />
				<stop
   offset="1"
   style="stop-color:#EDD46B"
   id="stop450" />
			</linearGradient>
			<path
   class="st20"
   d="m 1082.13,292.09 c -5.62,-0.65 -8.43,-0.95 -14.07,-1.49 -0.81,-3.7 -1.22,-5.55 -2.06,-9.25 -7.64,-0.7 -11.46,-0.99 -19.11,-1.48 -1.4,3.53 -2.09,5.29 -3.46,8.83 -5.64,-0.34 -8.46,-0.47 -14.11,-0.69 7.01,-16.7 14.34,-33.21 22.01,-49.62 6.7,0.44 10.06,0.7 16.75,1.3 5.03,17.38 9.71,34.83 14.05,52.4 z m -23.55,-40.55 c -3.15,7.45 -4.69,11.18 -7.7,18.66 5.08,0.35 7.62,0.54 12.69,0.98 -1.83,-7.85 -2.78,-11.78 -4.74,-19.62 -0.1,-0.01 -0.15,-0.01 -0.25,-0.02 z"
   id="path453"
   style="fill:url(#SVGID_25_);stroke-width:3.19994" />
			<linearGradient
   id="SVGID_26_"
   gradientUnits="userSpaceOnUse"
   x1="1082.8749"
   y1="268.21841"
   x2="1127.9189"
   y2="268.21841">
				<stop
   offset="0"
   style="stop-color:#E0BB41"
   id="stop455" />
				<stop
   offset="0.3672"
   style="stop-color:#E5C552"
   id="stop457" />
				<stop
   offset="1"
   style="stop-color:#EDD46B"
   id="stop459" />
			</linearGradient>
			<path
   class="st21"
   d="m 1127.92,247.45 c -0.69,4.03 -1.04,6.04 -1.73,10.07 -5.95,-1.02 -8.92,-1.5 -14.89,-2.39 -2.01,13.35 -4.01,26.7 -6.02,40.04 -5.12,-0.77 -7.68,-1.13 -12.81,-1.8 1.76,-13.38 3.51,-26.77 5.27,-40.15 -5.94,-0.78 -8.92,-1.14 -14.87,-1.8 0.45,-4.06 0.67,-6.09 1.12,-10.15 14.71,1.74 29.32,3.8 43.93,6.18 z"
   id="path462"
   style="fill:url(#SVGID_26_);stroke-width:3.19994" />
			<linearGradient
   id="SVGID_27_"
   gradientUnits="userSpaceOnUse"
   x1="1125.955"
   y1="274.86609"
   x2="1148.6727"
   y2="274.86609">
				<stop
   offset="0"
   style="stop-color:#E0BB41"
   id="stop464" />
				<stop
   offset="0.3672"
   style="stop-color:#E5C552"
   id="stop466" />
				<stop
   offset="1"
   style="stop-color:#EDD46B"
   id="stop468" />
			</linearGradient>
			<path
   class="st22"
   d="m 1138.69,301.03 c -5.09,-1.02 -7.63,-1.51 -12.73,-2.43 3.02,-16.63 6.03,-33.26 9.05,-49.89 5.47,0.99 8.21,1.52 13.67,2.61 -3.33,16.57 -6.66,33.14 -9.99,49.71 z"
   id="path471"
   style="fill:url(#SVGID_27_);stroke-width:3.19994" />
			<linearGradient
   id="SVGID_28_"
   gradientUnits="userSpaceOnUse"
   x1="1149.2982"
   y1="284.17551"
   x2="1208.5352"
   y2="284.17551">
				<stop
   offset="0"
   style="stop-color:#E0BB41"
   id="stop473" />
				<stop
   offset="0.3672"
   style="stop-color:#E5C552"
   id="stop475" />
				<stop
   offset="1"
   style="stop-color:#EDD46B"
   id="stop477" />
			</linearGradient>
			<path
   class="st23"
   d="m 1187,292.22 c 2.69,-10.01 5.38,-20.02 8.06,-30.03 5.4,1.45 8.09,2.2 13.47,3.75 -4.69,16.24 -9.38,32.48 -14.07,48.72 -5.3,-1.53 -7.96,-2.27 -13.29,-3.69 -3.68,-11.78 -7.65,-23.47 -11.89,-35.06 -0.06,-0.01 -0.09,-0.02 -0.16,-0.04 -2.39,10.09 -4.78,20.17 -7.17,30.26 -5.06,-1.2 -7.59,-1.77 -12.67,-2.88 3.59,-16.52 7.17,-33.04 10.76,-49.55 5.8,1.26 8.69,1.92 14.47,3.29 4.38,11.63 8.49,23.37 12.32,35.19 0.08,0.02 0.11,0.02 0.17,0.04 z"
   id="path480"
   style="fill:url(#SVGID_28_);stroke-width:3.19994" />
			<linearGradient
   id="SVGID_29_"
   gradientUnits="userSpaceOnUse"
   x1="1208.6714"
   y1="302.15121"
   x2="1263.274"
   y2="302.15121">
				<stop
   offset="0"
   style="stop-color:#E0BB41"
   id="stop482" />
				<stop
   offset="0.3672"
   style="stop-color:#E5C552"
   id="stop484" />
				<stop
   offset="1"
   style="stop-color:#EDD46B"
   id="stop486" />
			</linearGradient>
			<path
   class="st24"
   d="m 1257.19,305.61 c -3.62,9.57 -5.42,14.36 -9.04,23.93 -5.72,0.23 -14.22,-1.34 -21.38,-3.51 -14.33,-4.34 -21.04,-19.7 -16.89,-33.26 4.7,-15.31 21.06,-21.51 36.1,-16.12 7.09,2.54 13.95,6.96 17.28,10.29 -2.89,3.09 -4.33,4.64 -7.18,7.75 -3.25,-2.71 -7.43,-6.06 -13.52,-8.17 -10.1,-3.5 -16.47,1.64 -19.31,10.44 -3.08,9.51 -0.85,16.53 7.56,19.43 2.66,0.91 5.21,1.42 7.5,1.52 1.11,-3.12 1.67,-4.68 2.78,-7.8 -3.16,-1.6 -4.74,-2.39 -7.92,-3.95 1.12,-3.27 1.68,-4.91 2.8,-8.18 8.53,2.91 12.77,4.44 21.22,7.63 z"
   id="path489"
   style="fill:url(#SVGID_29_);stroke-width:3.19994" />
		</g>
	</g>
	<g
   id="g537"
   style="stroke-width:3.19994">
		<defs
   id="defs496">
			<polygon
   id="SVGID_30_"
   points="1032.97,160.88 1017.22,176.23 1020.94,197.9 1001.47,187.67 982.01,197.9 985.73,176.23 969.98,160.88 991.74,157.72 1001.47,138 1011.21,157.72 " />
		</defs>
		<defs
   id="defs499">
			<polygon
   id="SVGID_31_"
   points="942.33,180.43 930.36,192.1 933.19,208.57 918.39,200.79 903.6,208.57 906.42,192.1 894.45,180.43 910.99,178.02 918.39,163.03 925.79,178.02 " />
		</defs>
		<defs
   id="defs502">
			<polygon
   id="SVGID_32_"
   points="872.05,210.52 864.25,218.12 866.09,228.86 856.44,223.79 846.8,228.86 848.64,218.12 840.84,210.52 851.62,208.95 856.44,199.18 861.27,208.95 " />
		</defs>
		<defs
   id="defs505">
			<polygon
   id="SVGID_33_"
   points="1060.61,180.43 1072.59,192.1 1069.76,208.57 1084.56,200.79 1099.35,208.57 1096.53,192.1 1108.5,180.43 1091.95,178.02 1084.56,163.03 1077.16,178.02 " />
		</defs>
		<defs
   id="defs508">
			<polygon
   id="SVGID_34_"
   points="1132.64,210.52 1140.44,218.12 1138.6,228.86 1148.24,223.79 1157.89,228.86 1156.05,218.12 1163.85,210.52 1153.07,208.95 1148.24,199.18 1143.42,208.95 " />
		</defs>
		<use
   xlink:href="#SVGID_30_"
   style="overflow:visible;fill:#f9df7b;stroke-width:3.19994"
   id="use510"
   x="0"
   y="0"
   width="100%"
   height="100%" />
		<use
   xlink:href="#SVGID_31_"
   style="overflow:visible;fill:#f9df7b;stroke-width:3.19994"
   id="use512"
   x="0"
   y="0"
   width="100%"
   height="100%" />
		<use
   xlink:href="#SVGID_32_"
   style="overflow:visible;fill:#f9df7b;stroke-width:3.19994"
   id="use514"
   x="0"
   y="0"
   width="100%"
   height="100%" />
		<use
   xlink:href="#SVGID_33_"
   style="overflow:visible;fill:#f9df7b;stroke-width:3.19994"
   id="use516"
   x="0"
   y="0"
   width="100%"
   height="100%" />
		<use
   xlink:href="#SVGID_34_"
   style="overflow:visible;fill:#f9df7b;stroke-width:3.19994"
   id="use518"
   x="0"
   y="0"
   width="100%"
   height="100%" />
		<clipPath
   id="SVGID_35_">
			<use
   xlink:href="#SVGID_30_"
   style="overflow:visible"
   id="use520"
   x="0"
   y="0"
   width="100%"
   height="100%" />
		</clipPath>
		<clipPath
   id="SVGID_36_"
   class="st25"
   clip-path="url(#SVGID_35_)">
			<use
   xlink:href="#SVGID_31_"
   style="overflow:visible"
   id="use523"
   x="0"
   y="0"
   width="100%"
   height="100%" />
		</clipPath>
		<clipPath
   id="SVGID_37_"
   class="st26"
   clip-path="url(#SVGID_36_)">
			<use
   xlink:href="#SVGID_32_"
   style="overflow:visible"
   id="use526"
   x="0"
   y="0"
   width="100%"
   height="100%" />
		</clipPath>
		<clipPath
   id="SVGID_38_"
   class="st27"
   clip-path="url(#SVGID_37_)">
			<use
   xlink:href="#SVGID_33_"
   style="overflow:visible"
   id="use529"
   x="0"
   y="0"
   width="100%"
   height="100%" />
		</clipPath>
		<clipPath
   id="SVGID_39_"
   class="st28"
   clip-path="url(#SVGID_38_)">
			<use
   xlink:href="#SVGID_34_"
   style="overflow:visible"
   id="use532"
   x="0"
   y="0"
   width="100%"
   height="100%" />
		</clipPath>
		<path
   class="st29"
   d="M 1234.2,263.8 H 777.98 c -2.96,0 -5.36,-2.4 -5.36,-5.36 V 128.2 c 0,-2.96 2.4,-5.36 5.36,-5.36 h 456.23 c 2.96,0 5.36,2.4 5.36,5.36 v 130.24 c 0,2.96 -2.4,5.36 -5.37,5.36 z"
   clip-path="url(#SVGID_39_)"
   id="path535"
   style="stroke-width:3.19994" />
	</g>
	<line
   class="st30"
   x1="1001.47"
   y1="369.64999"
   x2="1003.21"
   y2="369.64999"
   id="line539"
   style="stroke-width:3.19994" />
	<linearGradient
   id="SVGID_40_"
   gradientUnits="userSpaceOnUse"
   x1="784.91339"
   y1="330.065"
   x2="1219.7753"
   y2="330.065">
		<stop
   offset="0"
   style="stop-color:#B57E10"
   id="stop541" />
		<stop
   offset="0.2222"
   style="stop-color:#E5C35C"
   id="stop543" />
		<stop
   offset="0.328"
   style="stop-color:#F9DF7B"
   id="stop545" />
		<stop
   offset="0.524"
   style="stop-color:#FFF3A6"
   id="stop547" />
		<stop
   offset="0.7298"
   style="stop-color:#F9DF7B"
   id="stop549" />
		<stop
   offset="1"
   style="stop-color:#B57E10"
   id="stop551" />
	</linearGradient>
	<path
   class="st31"
   d="m 785.08,344.45 c 0,0 213.79,-74.74 434.53,3.48"
   id="path554"
   style="stroke:url(#SVGID_40_);stroke-width:3.19994" />
	<g
   id="g666"
   style="stroke-width:3.19994">
		<g
   id="g664"
   style="stroke-width:3.19994">
			<linearGradient
   id="SVGID_41_"
   gradientUnits="userSpaceOnUse"
   x1="493.13629"
   y1="1360.3602"
   x2="576.89423"
   y2="1360.3602">
				<stop
   offset="0"
   style="stop-color:#591757"
   id="stop556" />
				<stop
   offset="0.4686"
   style="stop-color:#731249"
   id="stop558" />
				<stop
   offset="1"
   style="stop-color:#8C0E3C"
   id="stop560" />
			</linearGradient>
			<path
   class="st32"
   d="m 544.37,1389.23 c -16.73,-28.03 -33.8,-55.84 -51.23,-83.44 9.71,-2.49 14.57,-3.71 24.3,-6.08 10.9,19.16 21.66,38.39 32.28,57.7 0.95,-22.02 2.06,-44.03 3.32,-66.03 8.91,-2 13.37,-2.98 22.3,-4.87 -3.32,32.47 -6.23,64.97 -8.74,97.51 3.43,15.04 6.87,30.07 10.3,45.11 -8.69,1.98 -13.02,3 -21.69,5.09 -3.62,-15 -7.23,-30 -10.84,-44.99 z"
   id="path563"
   style="fill:url(#SVGID_41_);stroke-width:3.19994" />
			<linearGradient
   id="SVGID_42_"
   gradientUnits="userSpaceOnUse"
   x1="581.50958"
   y1="1347.3745"
   x2="669.65448"
   y2="1347.3745">
				<stop
   offset="0"
   style="stop-color:#591757"
   id="stop565" />
				<stop
   offset="0.4686"
   style="stop-color:#731249"
   id="stop567" />
				<stop
   offset="1"
   style="stop-color:#8C0E3C"
   id="stop569" />
			</linearGradient>
			<path
   class="st33"
   d="m 616.3,1338.18 c 10.41,-2.06 20.84,-4.03 31.28,-5.9 1.41,7.85 2.12,11.78 3.54,19.63 -10.34,1.85 -20.66,3.8 -30.96,5.84 2.63,13.37 5.27,26.74 7.9,40.12 12.69,-2.5 25.41,-4.87 38.14,-7.11 1.38,7.86 2.07,11.79 3.45,19.64 -19.9,3.56 -39.74,7.38 -59.54,11.46 -9.53,-45.55 -19.07,-91.1 -28.6,-136.65 21.27,-4.39 42.59,-8.49 63.97,-12.31 1.38,7.86 2.07,11.79 3.45,19.64 -13.41,2.36 -26.79,4.85 -40.15,7.48 2.51,12.72 5.02,25.44 7.52,38.16 z"
   id="path572"
   style="fill:url(#SVGID_42_);stroke-width:3.19994" />
			<linearGradient
   id="SVGID_43_"
   gradientUnits="userSpaceOnUse"
   x1="674.11853"
   y1="1336.1584"
   x2="751.23462"
   y2="1336.1584">
				<stop
   offset="0"
   style="stop-color:#591757"
   id="stop574" />
				<stop
   offset="0.4686"
   style="stop-color:#731249"
   id="stop576" />
				<stop
   offset="1"
   style="stop-color:#8C0E3C"
   id="stop578" />
			</linearGradient>
			<path
   class="st34"
   d="m 751.23,1397.9 c -8.88,1.16 -13.31,1.77 -22.18,3.04 -2.95,-9.81 -4.44,-14.72 -7.43,-24.52 -10.93,1.58 -16.39,2.42 -27.29,4.16 0.06,10.25 0.11,15.37 0.21,25.62 -8.05,1.3 -12.07,1.98 -20.11,3.37 -0.46,-47.19 -0.41,-94.38 0.15,-141.57 11.5,-1.81 22.99,-3.56 34.51,-5.24 14.53,44.89 28.58,89.94 42.14,135.14 z m -57.03,-36.49 c 8.65,-1.37 12.98,-2.03 21.64,-3.3 -7.05,-22.76 -14.2,-45.49 -21.47,-68.18 -0.17,23.83 -0.23,47.65 -0.17,71.48 z"
   id="path581"
   style="fill:url(#SVGID_43_);stroke-width:3.19994" />
			<linearGradient
   id="SVGID_44_"
   gradientUnits="userSpaceOnUse"
   x1="740.86761"
   y1="1325.3822"
   x2="826.95007"
   y2="1325.3822">
				<stop
   offset="0"
   style="stop-color:#591757"
   id="stop583" />
				<stop
   offset="0.4686"
   style="stop-color:#731249"
   id="stop585" />
				<stop
   offset="1"
   style="stop-color:#8C0E3C"
   id="stop587" />
			</linearGradient>
			<path
   class="st35"
   d="m 804.49,1391.7 c -1.57,-3.45 -2.6,-5.55 -3.76,-16.86 -0.9,-8.73 -1.35,-13.09 -2.25,-21.82 -1.33,-12.9 -6.36,-17.21 -16.68,-16.07 -3.14,0.35 -4.7,0.52 -7.84,0.88 2.16,18.82 4.32,37.65 6.49,56.47 -8.81,1.01 -13.21,1.54 -22.01,2.66 -5.86,-46.17 -11.71,-92.33 -17.57,-138.5 11.89,-1.51 23.79,-2.91 35.7,-4.21 20.67,-2.76 36.61,6.73 38.02,28.47 0.4,4.37 0.6,6.55 1,10.92 1.42,11.37 -1.83,23.69 -12.39,29.63 12.44,3.52 17.25,16.39 17.86,28.15 0.78,8.58 1.17,12.87 1.95,21.45 0.61,6.75 1.27,11.7 3.94,16.67 -8.99,0.82 -13.48,1.25 -22.46,2.16 z m -37.7,-116.28 c 1.63,14.2 3.26,28.4 4.89,42.6 3.58,-0.41 5.38,-0.61 8.96,-1.01 8.55,-0.94 13.4,-5.04 12.25,-16.15 -0.56,-5.48 -0.85,-8.21 -1.41,-13.69 -1.02,-9.92 -5.1,-13.93 -13.41,-13.02 -4.5,0.5 -6.76,0.75 -11.28,1.27 z"
   id="path590"
   style="fill:url(#SVGID_44_);stroke-width:3.19994" />
			<linearGradient
   id="SVGID_45_"
   gradientUnits="userSpaceOnUse"
   x1="823.85162"
   y1="1316.845"
   x2="896.80768"
   y2="1316.845">
				<stop
   offset="0"
   style="stop-color:#591757"
   id="stop592" />
				<stop
   offset="0.4686"
   style="stop-color:#731249"
   id="stop594" />
				<stop
   offset="1"
   style="stop-color:#8C0E3C"
   id="stop596" />
			</linearGradient>
			<path
   class="st36"
   d="m 856,1245.61 c 20.99,-1.45 36.13,11.66 36.81,32.95 0.09,1.75 0.14,2.63 0.23,4.38 -8.82,0.45 -13.22,0.7 -22.03,1.26 -0.14,-2.31 -0.22,-3.46 -0.36,-5.77 -0.62,-9.95 -5.14,-13.48 -12.62,-12.96 -7.48,0.51 -11.49,4.63 -10.74,14.56 2.34,31.09 47.52,36.37 49.46,71.03 1.12,20.04 -10.64,35.62 -31.13,37.04 -20.49,1.41 -34.53,-12.12 -35.93,-32.41 -0.3,-3.42 -0.44,-5.13 -0.74,-8.54 8.53,-0.74 12.8,-1.09 21.34,-1.73 0.3,3.98 0.45,5.97 0.75,9.94 0.75,9.94 5.48,13.18 12.58,12.69 7.1,-0.49 11.33,-4.35 10.71,-14.3 -1.94,-30.91 -47.17,-37.01 -50.28,-70.44 -1.95,-20.95 10.96,-36.26 31.95,-37.7 z"
   id="path599"
   style="fill:url(#SVGID_45_);stroke-width:3.19994" />
			<linearGradient
   id="SVGID_46_"
   gradientUnits="userSpaceOnUse"
   x1="930.98877"
   y1="1312.4395"
   x2="1002.0584"
   y2="1312.4395">
				<stop
   offset="0"
   style="stop-color:#591757"
   id="stop601" />
				<stop
   offset="0.4686"
   style="stop-color:#731249"
   id="stop603" />
				<stop
   offset="1"
   style="stop-color:#8C0E3C"
   id="stop605" />
			</linearGradient>
			<path
   class="st37"
   d="m 931.05,1276.96 c -1.11,-21.62 13.97,-35.62 35,-35.92 21.03,-0.3 36.49,13.27 36,34.91 -0.09,24.2 -0.18,48.4 -0.27,72.6 0.28,20.5 -13.2,34.99 -33.71,35.28 -20.51,0.29 -34.39,-13.81 -34.69,-34.31 -0.78,-24.18 -1.56,-48.37 -2.33,-72.56 z m 24.88,73.37 c 0.2,9.97 4.75,13.66 11.86,13.56 7.11,-0.1 11.55,-3.92 11.47,-13.89 -0.2,-25.13 -0.4,-50.26 -0.61,-75.39 -0.08,-9.97 -4.82,-13.73 -12.32,-13.63 -7.5,0.11 -12.13,4 -11.93,13.97 0.51,25.13 1.02,50.26 1.53,75.38 z"
   id="path608"
   style="fill:url(#SVGID_46_);stroke-width:3.19994" />
			<linearGradient
   id="SVGID_47_"
   gradientUnits="userSpaceOnUse"
   x1="1012.918"
   y1="1312.5107"
   x2="1077.1759"
   y2="1312.5107">
				<stop
   offset="0"
   style="stop-color:#591757"
   id="stop610" />
				<stop
   offset="0.4686"
   style="stop-color:#731249"
   id="stop612" />
				<stop
   offset="1"
   style="stop-color:#8C0E3C"
   id="stop614" />
			</linearGradient>
			<path
   class="st38"
   d="m 1036.72,1304.92 c 9.92,0.21 19.83,0.5 29.75,0.87 -0.29,7.97 -0.44,11.96 -0.73,19.93 -9.81,-0.37 -19.63,-0.66 -29.44,-0.86 -0.41,19.21 -0.83,38.42 -1.24,57.63 -8.85,-0.19 -13.28,-0.26 -22.13,-0.35 0.45,-46.54 0.91,-93.07 1.36,-139.61 20.98,0.27 41.93,0.8 62.9,1.6 -0.33,7.97 -0.49,11.96 -0.82,19.93 -12.91,-0.53 -25.82,-0.93 -38.73,-1.21 -0.31,14.02 -0.61,28.05 -0.92,42.07 z"
   id="path617"
   style="fill:url(#SVGID_47_);stroke-width:3.19994" />
			<linearGradient
   id="SVGID_48_"
   gradientUnits="userSpaceOnUse"
   x1="1107.585"
   y1="1316.9187"
   x2="1182.0613"
   y2="1316.9187">
				<stop
   offset="0"
   style="stop-color:#591757"
   id="stop619" />
				<stop
   offset="0.4686"
   style="stop-color:#731249"
   id="stop621" />
				<stop
   offset="1"
   style="stop-color:#8C0E3C"
   id="stop623" />
			</linearGradient>
			<path
   class="st39"
   d="m 1108.71,1245.67 c 24.48,1.46 48.92,3.29 73.35,5.5 -0.74,7.94 -1.11,11.91 -1.85,19.86 -9.81,-0.92 -14.72,-1.34 -24.55,-2.14 -3.22,39.76 -6.44,79.52 -9.65,119.28 -8.83,-0.71 -13.25,-1.05 -22.09,-1.66 2.75,-39.79 5.5,-79.59 8.25,-119.38 -9.83,-0.68 -14.75,-0.99 -24.58,-1.55 0.45,-7.96 0.67,-11.95 1.12,-19.91 z"
   id="path626"
   style="fill:url(#SVGID_48_);stroke-width:3.19994" />
			<linearGradient
   id="SVGID_49_"
   gradientUnits="userSpaceOnUse"
   x1="1175.6995"
   y1="1325.2821"
   x2="1256.2518"
   y2="1325.2821">
				<stop
   offset="0"
   style="stop-color:#591757"
   id="stop628" />
				<stop
   offset="0.4686"
   style="stop-color:#731249"
   id="stop630" />
				<stop
   offset="1"
   style="stop-color:#8C0E3C"
   id="stop632" />
			</linearGradient>
			<path
   class="st40"
   d="m 1221.77,1395.85 c -0.77,-3.71 -1.31,-5.98 0.06,-17.27 1.05,-8.71 1.58,-13.07 2.63,-21.78 1.56,-12.87 -2.4,-18.19 -12.72,-19.36 -3.14,-0.35 -4.7,-0.53 -7.84,-0.87 -2.05,18.84 -4.1,37.67 -6.15,56.51 -8.81,-0.96 -13.22,-1.41 -22.05,-2.27 4.49,-46.32 8.98,-92.64 13.47,-138.96 11.92,1.16 23.84,2.42 35.74,3.79 20.77,1.88 34.24,14.65 30.81,36.17 -0.58,4.35 -0.87,6.52 -1.44,10.87 -1.13,11.41 -7.03,22.7 -18.65,26.15 11.36,6.18 13.22,19.79 11.22,31.41 -1.13,8.54 -1.7,12.81 -2.84,21.35 -0.89,6.72 -1.34,11.69 0.17,17.13 -8.96,-1.2 -13.44,-1.78 -22.41,-2.87 z m -11.07,-121.74 c -1.55,14.21 -3.09,28.42 -4.64,42.63 3.59,0.39 5.38,0.59 8.96,1 8.55,0.97 14.18,-1.95 15.52,-13.04 0.66,-5.46 0.99,-8.2 1.65,-13.66 1.2,-9.9 -1.9,-14.71 -10.2,-15.66 -4.52,-0.52 -6.77,-0.78 -11.29,-1.27 z"
   id="path635"
   style="fill:url(#SVGID_49_);stroke-width:3.19994" />
			<linearGradient
   id="SVGID_50_"
   gradientUnits="userSpaceOnUse"
   x1="1256.1932"
   y1="1334.2133"
   x2="1341.5901"
   y2="1334.2133">
				<stop
   offset="0"
   style="stop-color:#591757"
   id="stop637" />
				<stop
   offset="0.4686"
   style="stop-color:#731249"
   id="stop639" />
				<stop
   offset="1"
   style="stop-color:#8C0E3C"
   id="stop641" />
			</linearGradient>
			<path
   class="st41"
   d="m 1294.92,1264.93 c -5.35,35.5 -10.69,71 -16.04,106.5 -1.49,9.86 2.41,14.07 9.46,15.18 7.05,1.11 12.05,-1.71 13.66,-11.55 5.78,-35.43 11.56,-70.86 17.34,-106.3 8.91,1.45 13.35,2.2 22.25,3.76 -6.1,34.91 -12.2,69.81 -18.29,104.72 -3.15,20.13 -18.37,32.35 -38.67,29.17 -20.3,-3.18 -31.04,-19.47 -27.89,-39.59 4.86,-35.1 9.73,-70.2 14.59,-105.3 9.44,1.3 14.16,1.99 23.59,3.41 z"
   id="path644"
   style="fill:url(#SVGID_50_);stroke-width:3.19994" />
			<linearGradient
   id="SVGID_51_"
   gradientUnits="userSpaceOnUse"
   x1="1331.1908"
   y1="1349.2147"
   x2="1414.5244"
   y2="1349.2147">
				<stop
   offset="0"
   style="stop-color:#591757"
   id="stop646" />
				<stop
   offset="0.4686"
   style="stop-color:#731249"
   id="stop648" />
				<stop
   offset="1"
   style="stop-color:#8C0E3C"
   id="stop650" />
			</linearGradient>
			<path
   class="st42"
   d="m 1386.29,1279.22 c 20.66,4.09 32.01,20.65 27.09,41.45 -0.37,1.72 -0.56,2.57 -0.93,4.29 -8.67,-1.87 -13.02,-2.79 -21.71,-4.56 0.46,-2.27 0.69,-3.4 1.16,-5.67 2,-9.77 -1.46,-14.35 -8.85,-15.82 -7.39,-1.46 -12.34,1.46 -14.21,11.25 -5.86,30.66 36.59,47.49 29.41,81.52 -4.16,19.71 -19.7,31.58 -39.87,27.59 -20.17,-3.99 -30.3,-20.68 -26.34,-40.69 0.61,-3.38 0.91,-5.06 1.51,-8.44 8.46,1.52 12.68,2.3 21.13,3.91 -0.75,3.92 -1.12,5.88 -1.87,9.8 -1.87,9.8 1.87,14.16 8.88,15.54 7.01,1.38 12.13,-1.23 14.12,-11 6.2,-30.37 -36.05,-48.02 -30.31,-81.15 3.59,-20.78 20.13,-32.11 40.79,-28.02 z"
   id="path653"
   style="fill:url(#SVGID_51_);stroke-width:3.19994" />
			<linearGradient
   id="SVGID_52_"
   gradientUnits="userSpaceOnUse"
   x1="1417.0522"
   y1="1362.0305"
   x2="1496.0734"
   y2="1362.0305">
				<stop
   offset="0"
   style="stop-color:#591757"
   id="stop655" />
				<stop
   offset="0.4686"
   style="stop-color:#731249"
   id="stop657" />
				<stop
   offset="1"
   style="stop-color:#8C0E3C"
   id="stop659" />
			</linearGradient>
			<path
   class="st43"
   d="m 1424.07,1288.7 c 24.1,5.33 48.08,11.02 72,17.09 -1.98,7.73 -2.98,11.59 -4.96,19.32 -9.61,-2.47 -14.43,-3.67 -24.06,-6.02 -9.44,38.76 -18.88,77.51 -28.32,116.27 -8.66,-2.11 -13,-3.14 -21.68,-5.14 8.98,-38.87 17.96,-77.73 26.94,-116.6 -9.66,-2.23 -14.49,-3.32 -24.16,-5.42 1.69,-7.8 2.54,-11.7 4.24,-19.5 z"
   id="path662"
   style="fill:url(#SVGID_52_);stroke-width:3.19994" />
		</g>
	</g>
</g>
</svg>
